<svg xmlns="http://www.w3.org/2000/svg" width="1280" height="720" viewBox="0 0 1280 720" role="img" aria-labelledby="title desc">
  <title id="title">Ciclo de mantenimiento de Artify basado en ISO 14764</title>
  <desc id="desc">Diagrama visual centrado con las etapas de implementacion, analisis, modificacion, aceptacion, migracion y retiro del mantenimiento de Artify.</desc>
  <defs>
    <linearGradient id="bg" x1="0" y1="0" x2="1" y2="1">
      <stop offset="0" stop-color="#111827"/>
      <stop offset="0.54" stop-color="#13263b"/>
      <stop offset="1" stop-color="#0f766e"/>
    </linearGradient>
    <linearGradient id="card" x1="0" y1="0" x2="1" y2="1">
      <stop offset="0" stop-color="#ffffff" stop-opacity="0.18"/>
      <stop offset="1" stop-color="#ffffff" stop-opacity="0.07"/>
    </linearGradient>
    <filter id="shadow" x="-20%" y="-20%" width="140%" height="140%">
      <feDropShadow dx="0" dy="18" stdDeviation="18" flood-color="#020617" flood-opacity="0.26"/>
    </filter>
    <marker id="arrow" viewBox="0 0 12 12" refX="10" refY="6" markerWidth="10" markerHeight="10" orient="auto">
      <path d="M2 2 L10 6 L2 10 Z" fill="#7dd3fc"/>
    </marker>
    <clipPath id="roundedClip">
      <rect width="1280" height="720" rx="34" ry="34"/>
    </clipPath>
  </defs>

  <g clip-path="url(#roundedClip)">
  <rect width="1280" height="720" fill="url(#bg)"/>
  <circle cx="1096" cy="94" r="118" fill="#22d3ee" opacity="0.08"/>
  <circle cx="138" cy="610" r="150" fill="#34d399" opacity="0.08"/>
  <text x="80" y="82" font-family="Inter, Arial, sans-serif" font-size="34" font-weight="700" fill="#f8fafc">Plan de mantenimiento Artify</text>
  <text x="80" y="122" font-family="Inter, Arial, sans-serif" font-size="19" fill="#cbd5e1">Ciclo operativo alineado con ISO/IEC/IEEE 14764</text>

  <g transform="translate(640 382)">
    <circle r="246" fill="none" stroke="#7dd3fc" stroke-width="4" opacity="0.52"/>
    <g stroke="#7dd3fc" stroke-width="4" fill="none" marker-end="url(#arrow)" opacity="0.9">
      <path d="M-116 -216 C-46 -258 54 -258 124 -216"/>
      <path d="M214 -118 C258 -34 258 34 214 118"/>
      <path d="M124 216 C54 258 -46 258 -116 216"/>
      <path d="M-214 118 C-258 34 -258 -34 -214 -118"/>
    </g>
  </g>

  <g filter="url(#shadow)" font-family="Inter, Arial, sans-serif">
    <g transform="translate(376 158)">
      <rect width="272" height="116" rx="18" fill="url(#card)" stroke="#67e8f9" stroke-opacity="0.5"/>
      <text x="24" y="40" font-size="21" font-weight="700" fill="#f8fafc">1. Implementacion</text>
      <text x="24" y="71" font-size="15" fill="#dbeafe">Defino roles, repositorio,</text>
      <text x="24" y="92" font-size="15" fill="#dbeafe">ambientes y tablero de soporte.</text>
    </g>

    <g transform="translate(706 158)">
      <rect width="272" height="116" rx="18" fill="url(#card)" stroke="#a7f3d0" stroke-opacity="0.5"/>
      <text x="24" y="40" font-size="21" font-weight="700" fill="#f8fafc">2. Analisis</text>
      <text x="24" y="71" font-size="15" fill="#dcfce7">Clasifico solicitudes, riesgos,</text>
      <text x="24" y="92" font-size="15" fill="#dcfce7">impacto y prioridad.</text>
    </g>

    <g transform="translate(812 352)">
      <rect width="288" height="116" rx="18" fill="url(#card)" stroke="#fbbf24" stroke-opacity="0.55"/>
      <text x="24" y="40" font-size="21" font-weight="700" fill="#f8fafc">3. Modificacion</text>
      <text x="24" y="71" font-size="15" fill="#fef3c7">Desarrollo, pruebas, revision</text>
      <text x="24" y="92" font-size="15" fill="#fef3c7">y control de version.</text>
    </g>

    <g transform="translate(648 532)">
      <rect width="292" height="116" rx="18" fill="url(#card)" stroke="#c4b5fd" stroke-opacity="0.55"/>
      <text x="24" y="40" font-size="21" font-weight="700" fill="#f8fafc">4. Aceptacion</text>
      <text x="24" y="71" font-size="15" fill="#ede9fe">Verifico criterios, evidencias</text>
      <text x="24" y="92" font-size="15" fill="#ede9fe">y documentacion actualizada.</text>
    </g>

    <g transform="translate(338 532)">
      <rect width="292" height="116" rx="18" fill="url(#card)" stroke="#fb7185" stroke-opacity="0.55"/>
      <text x="24" y="40" font-size="21" font-weight="700" fill="#f8fafc">5. Migracion</text>
      <text x="24" y="71" font-size="15" fill="#ffe4e6">Planeo cambios de plataforma,</text>
      <text x="24" y="92" font-size="15" fill="#ffe4e6">datos y compatibilidad.</text>
    </g>

    <g transform="translate(180 352)">
      <rect width="272" height="116" rx="18" fill="url(#card)" stroke="#93c5fd" stroke-opacity="0.55"/>
      <text x="24" y="40" font-size="21" font-weight="700" fill="#f8fafc">6. Retiro</text>
      <text x="24" y="71" font-size="15" fill="#dbeafe">Cierro versiones, respaldo</text>
      <text x="24" y="92" font-size="15" fill="#dbeafe">y archivo evidencias.</text>
    </g>
  </g>

  <g transform="translate(510 322)" filter="url(#shadow)">
    <rect width="260" height="122" rx="24" fill="#020617" opacity="0.62" stroke="#38bdf8" stroke-opacity="0.4"/>
    <text x="130" y="52" text-anchor="middle" font-family="Inter, Arial, sans-serif" font-size="26" font-weight="800" fill="#f8fafc">Artify</text>
    <text x="130" y="82" text-anchor="middle" font-family="Inter, Arial, sans-serif" font-size="16" fill="#bae6fd">Frontend, backend</text>
    <text x="130" y="104" text-anchor="middle" font-family="Inter, Arial, sans-serif" font-size="16" fill="#bae6fd">y PostgreSQL</text>
  </g>
  </g>
</svg>
